<?xml version="1.0" encoding="UTF-8" standalone="no"?>
<!-- Created with Inkscape (http://www.inkscape.org/) -->

<svg
   xmlns:dc="http://purl.org/dc/elements/1.1/"
   xmlns:cc="http://creativecommons.org/ns#"
   xmlns:rdf="http://www.w3.org/1999/02/22-rdf-syntax-ns#"
   xmlns:svg="http://www.w3.org/2000/svg"
   xmlns="http://www.w3.org/2000/svg"
   xmlns:sodipodi="http://sodipodi.sourceforge.net/DTD/sodipodi-0.dtd"
   xmlns:inkscape="http://www.inkscape.org/namespaces/inkscape"
   width="32"
   height="32"
   viewBox="0 0 8.4666665 8.4666669"
   version="1.1"
   id="svg8"
   inkscape:version="0.92.3 (2405546, 2018-03-11)"
   sodipodi:docname="gear.svg">
  <defs
     id="defs2" />
  <sodipodi:namedview
     id="base"
     pagecolor="#ffffff"
     bordercolor="#666666"
     borderopacity="1.0"
     inkscape:pageopacity="0.0"
     inkscape:pageshadow="2"
     inkscape:zoom="22.4"
     inkscape:cx="12.706703"
     inkscape:cy="17.226627"
     inkscape:document-units="mm"
     inkscape:current-layer="layer1"
     showgrid="false"
     units="px"
     inkscape:window-width="1920"
     inkscape:window-height="1017"
     inkscape:window-x="1022"
     inkscape:window-y="1076"
     inkscape:window-maximized="1" />
  <metadata
     id="metadata5">
    <rdf:RDF>
      <cc:Work
         rdf:about="">
        <dc:format>image/svg+xml</dc:format>
        <dc:type
           rdf:resource="http://purl.org/dc/dcmitype/StillImage" />
        <dc:title></dc:title>
      </cc:Work>
    </rdf:RDF>
  </metadata>
  <g
     inkscape:label="Layer 1"
     inkscape:groupmode="layer"
     id="layer1"
     transform="translate(0,-288.53332)">
    <path
       style="stroke-width:0.27866924;fill:#ffffff"
       d="m 4.8431534,288.63321 c -0.7916771,0.075 0.1198244,1.4862 -1.2349168,1.8583 -1.5482763,0.42527 -1.2449767,-1.82799 -2.3731881,-0.68555 -1.12821152,1.14243 1.1213605,0.81066 0.715517,2.36414 -0.4058435,1.55348 -2.20558477,0.16421 -1.78031488,1.71249 0.4252699,1.54827 1.26240538,-0.56529 2.40483798,0.56293 1.1424326,1.1282 -0.9600431,1.99221 0.5934382,2.39805 1.5534816,0.40584 0.1416102,-1.37596 1.6898863,-1.80123 1.5482761,-0.42527 1.2449765,1.82744 2.373188,0.685 1.1282114,-1.14243 -1.1207955,-0.81066 -0.7149518,-2.36415 0.4058434,-1.55347 2.2050196,-0.16422 1.7797494,-1.71249 -0.4252697,-1.54828 -1.2624053,0.56529 -2.404838,-0.56292 -1.1424324,-1.12821 0.9606085,-1.99221 -0.5928731,-2.39805 -0.1941849,-0.0507 -0.3424376,-0.0673 -0.4555342,-0.0566 z m -0.6075681,2.67725 a 1.5760429,1.5760429 0 0 1 1.5762853,1.57572 1.5760429,1.5760429 0 0 1 -1.5762853,1.57629 1.5760429,1.5760429 0 0 1 -1.5757197,-1.57629 1.5760429,1.5760429 0 0 1 1.5757197,-1.57572 z"
       id="path3713"
       inkscape:connector-curvature="0"
       inkscape:export-xdpi="96"
       inkscape:export-ydpi="96" />
  </g>
</svg>
