<?xml version="1.0" encoding="UTF-8" standalone="no"?>
<!-- Created with Inkscape (http://www.inkscape.org/) -->

<svg
   xmlns:dc="http://purl.org/dc/elements/1.1/"
   xmlns:cc="http://creativecommons.org/ns#"
   xmlns:rdf="http://www.w3.org/1999/02/22-rdf-syntax-ns#"
   xmlns:svg="http://www.w3.org/2000/svg"
   xmlns="http://www.w3.org/2000/svg"
   xmlns:xlink="http://www.w3.org/1999/xlink"
   xmlns:sodipodi="http://sodipodi.sourceforge.net/DTD/sodipodi-0.dtd"
   xmlns:inkscape="http://www.inkscape.org/namespaces/inkscape"
   width="32"
   height="32"
   viewBox="0 0 8.4666665 8.4666669"
   version="1.1"
   id="svg8"
   inkscape:export-filename="C:\Workspaces\BP\OIAMobster\MobMentality\logo.png"
   inkscape:export-xdpi="384"
   inkscape:export-ydpi="384"
   sodipodi:docname="logo.svg"
   inkscape:version="0.92.3 (2405546, 2018-03-11)">
  <defs
     id="defs2">
    <linearGradient
       inkscape:collect="always"
       id="linearGradient4645">
      <stop
         style="stop-color:#800080;stop-opacity:1"
         offset="0"
         id="stop4641" />
      <stop
         style="stop-color:#ff5555;stop-opacity:1"
         offset="1"
         id="stop4643" />
    </linearGradient>
    <linearGradient
       id="linearGradient4636"
       inkscape:collect="always">
      <stop
         id="stop4632"
         offset="0"
         style="stop-color:#800080;stop-opacity:1" />
      <stop
         id="stop4634"
         offset="1"
         style="stop-color:#00ff00;stop-opacity:1" />
    </linearGradient>
    <linearGradient
       id="linearGradient4626"
       inkscape:collect="always">
      <stop
         id="stop4622"
         offset="0"
         style="stop-color:#800080;stop-opacity:1;" />
      <stop
         id="stop4624"
         offset="1"
         style="stop-color:#8c008c;stop-opacity:1" />
    </linearGradient>
    <linearGradient
       inkscape:collect="always"
       id="linearGradient4535">
      <stop
         style="stop-color:#800080;stop-opacity:1;"
         offset="0"
         id="stop4531" />
      <stop
         style="stop-color:#ffffff;stop-opacity:1"
         offset="1"
         id="stop4533" />
    </linearGradient>
    <linearGradient
       inkscape:collect="always"
       xlink:href="#linearGradient4535"
       id="linearGradient4537"
       x1="1.1432538"
       y1="292.76666"
       x2="7.3234124"
       y2="292.76666"
       gradientUnits="userSpaceOnUse"
       gradientTransform="matrix(3.7795276,0,0,3.7795276,0,-1090.5196)" />
    <linearGradient
       inkscape:collect="always"
       xlink:href="#linearGradient4535"
       id="linearGradient4547"
       gradientUnits="userSpaceOnUse"
       x1="1.1432538"
       y1="292.76666"
       x2="7.3234124"
       y2="292.76666"
       gradientTransform="translate(12.154297)" />
    <linearGradient
       inkscape:collect="always"
       xlink:href="#linearGradient4535"
       id="linearGradient4596"
       gradientUnits="userSpaceOnUse"
       x1="1.1432538"
       y1="292.76666"
       x2="7.3234124"
       y2="292.76666"
       gradientTransform="matrix(3.7795276,0,0,3.7795276,0,-1090.5196)" />
    <linearGradient
       inkscape:collect="always"
       xlink:href="#linearGradient4626"
       id="linearGradient4615"
       gradientUnits="userSpaceOnUse"
       gradientTransform="matrix(1.2486594,0,0,1.2486594,-16.289824,-72.799161)"
       x1="1.1432538"
       y1="292.76666"
       x2="7.3234124"
       y2="292.76666" />
    <linearGradient
       inkscape:collect="always"
       xlink:href="#linearGradient4636"
       id="linearGradient4630"
       gradientUnits="userSpaceOnUse"
       x1="1.1432538"
       y1="292.76666"
       x2="7.3234124"
       y2="292.76666"
       gradientTransform="translate(0,-9.2643228e-6)" />
    <linearGradient
       inkscape:collect="always"
       xlink:href="#linearGradient4645"
       id="linearGradient4639"
       gradientUnits="userSpaceOnUse"
       gradientTransform="matrix(1.1948798,0,0,1.1948798,-0.89509574,-57.615953)"
       x1="1.1432538"
       y1="292.76666"
       x2="7.3234124"
       y2="292.76666" />
  </defs>
  <sodipodi:namedview
     id="base"
     pagecolor="#ffffff"
     bordercolor="#666666"
     borderopacity="1.0"
     inkscape:pageopacity="0.0"
     inkscape:pageshadow="2"
     inkscape:zoom="11.2"
     inkscape:cx="-2.6155409"
     inkscape:cy="11.711795"
     inkscape:document-units="mm"
     inkscape:current-layer="layer1"
     showgrid="false"
     units="px"
     inkscape:window-width="1920"
     inkscape:window-height="1017"
     inkscape:window-x="1022"
     inkscape:window-y="1076"
     inkscape:window-maximized="1" />
  <metadata
     id="metadata5">
    <rdf:RDF>
      <cc:Work
         rdf:about="">
        <dc:format>image/svg+xml</dc:format>
        <dc:type
           rdf:resource="http://purl.org/dc/dcmitype/StillImage" />
        <dc:title />
      </cc:Work>
    </rdf:RDF>
  </metadata>
  <g
     inkscape:label="Layer 1"
     inkscape:groupmode="layer"
     id="layer1"
     transform="translate(0,-288.53332)">
    <circle
       style="fill:#ffffff;fill-opacity:1;stroke:none;stroke-width:0.3726514"
       id="circle4600"
       cx="-11.003832"
       cy="292.76669"
       r="3.8584569" />
    <path
       style="fill:url(#linearGradient4615);fill-opacity:1;stroke:none;stroke-width:0.3726514"
       d="m -11.003832,288.908 a 3.8584567,3.8584567 0 0 0 -0.989833,0.13099 1.8146492,1.8146492 0 0 1 1.137598,1.6822 1.8146492,1.8146492 0 0 1 -1.815124,1.81448 1.8146492,1.8146492 0 0 1 -1.783506,-1.4854 3.8584567,3.8584567 0 0 0 -0.407806,1.7164 3.8584567,3.8584567 0 0 0 0.447167,1.79641 l 3.411504,-1.46022 3.412149,1.46022 a 3.8584567,3.8584567 0 0 0 0.4465219,-1.79641 3.8584567,3.8584567 0 0 0 -3.8586709,-3.85867 z m 0,4.19486 -2.960465,2.13581 a 3.8584567,3.8584567 0 0 0 2.770112,1.38022 l 0.06453,-1.08598 h 0.254879 l 0.06259,1.08276 a 3.8584567,3.8584567 0 0 0 2.7675316,-1.37764 z m -0.02646,0.46652 h 0.05356 l 0.01161,0.31037 h -0.07743 z m -0.05033,0.56009 h 0.155508 l 0.03484,0.91046 h -0.227131 z"
       id="circle4594"
       inkscape:connector-curvature="0" />
    <path
       style="fill:#ff0000;fill-opacity:1;stroke:none;stroke-width:0.39540246"
       d="m 4.2333333,277.04618 a 4.0940229,4.0940229 0 0 0 -2.2258205,0.65864 c 0.1246369,0.21259 0.2575105,0.42975 0.4190102,0.63057 0.3086179,0.38376 0.123094,0.93742 0.3546525,1.25498 1.0287894,1.41089 1.4057239,1.78726 1.399439,1.83967 -0.00721,0.0601 -0.5586318,-0.36992 -1.8828069,-1.2317 -0.3380735,-0.22002 -1.33258766,0.2666 -1.72807484,-0.007 -0.0885587,-0.0612 -0.17950909,-0.11673 -0.27043956,-0.17185 a 4.0940229,4.0940229 0 0 0 -0.16020979,1.12078 4.0940229,4.0940229 0 0 0 4.09424989,4.09425 4.0940229,4.0940229 0 0 0 4.09425,-4.09425 4.0940229,4.0940229 0 0 0 -4.09425,-4.09425 z"
       id="circle3715"
       inkscape:connector-curvature="0" />
    <path
       sodipodi:nodetypes="csssssssc"
       inkscape:connector-curvature="0"
       id="path4543"
       d="m -3.2255243,290.64964 c 0.232938,0.28965 0.09337,0.70731 0.2681453,0.947 0.776508,1.06491 1.0610443,1.34924 1.0563007,1.3888 -0.00544,0.0454 -0.4216328,-0.27942 -1.4210914,-0.92987 -0.2551704,-0.16607 -1.0058349,0.20139 -1.30434,-0.005 -0.6364797,-0.43996 -1.4009825,-0.62724 -1.4009855,-1.40098 -2.5e-6,-0.77374 0.6272408,-1.40099 1.4009855,-1.40099 0.7737446,0 0.9160832,0.79803 1.4009854,1.40099 z"
       style="fill:#000000;fill-opacity:1;stroke:none;stroke-width:0.13530777" />
    <circle
       style="fill:url(#linearGradient4547);fill-opacity:1;stroke:none;stroke-width:0.29844117"
       id="circle4545"
       cx="16.38763"
       cy="292.76666"
       r="3.0900793" />
    <path
       sodipodi:nodetypes="ccccc"
       inkscape:connector-curvature="0"
       id="path4602"
       d="m -4.0567143,305.03601 8.2902603,-3.54747 v 0 l -7.2984202,5.26539 z"
       style="fill:#ff8080;fill-opacity:1;stroke:none;stroke-width:0.29620218" />
    <path
       style="fill:#ff8080;fill-opacity:1;stroke:none;stroke-width:0.29620218"
       d="m 12.523806,305.03601 -8.29026,-3.54747 v 0 l 7.29842,5.26539 z"
       id="path4604"
       inkscape:connector-curvature="0"
       sodipodi:nodetypes="ccccc" />
    <path
       sodipodi:nodetypes="ccccc"
       inkscape:connector-curvature="0"
       id="path4606"
       d="m 4.1327746,303.43448 h 0.2040707 l 0.088588,1.5368 h -0.3842 z"
       style="fill:#ff8080;fill-opacity:1;stroke:none;stroke-width:0.26458332" />
    <path
       style="fill:#ff8080;fill-opacity:1;stroke:none;stroke-width:0.12553294"
       d="m 4.1716121,302.31063 h 0.1248431 l 0.028021,0.72914 H 4.1421904 Z"
       id="path4608"
       inkscape:connector-curvature="0"
       sodipodi:nodetypes="ccccc" />
    <path
       sodipodi:nodetypes="ccccc"
       inkscape:connector-curvature="0"
       id="path4610"
       d="m 4.2122643,301.8617 h 0.042616 l 0.00957,0.24888 H 4.202223 Z"
       style="fill:#ff8080;fill-opacity:1;stroke:none;stroke-width:0.0428509" />
    <circle
       r="1.4532781"
       cy="299.58081"
       cx="2.8982038"
       id="circle4612"
       style="fill:#ff8080;fill-opacity:1;stroke:none;stroke-width:0.26458332" />
    <path
       style="fill:url(#linearGradient4639);fill-opacity:1;stroke:none;stroke-width:0.35660136"
       d="m 7.8555024,292.20503 c 0.00408,0.99686 0.9484739,3.22038 -0.075196,3.91954 -0.752108,0.5137 -2.3119282,-2.71326 -3.6057043,-2.77194 -1.2484559,-0.0567 -2.2340673,3.06364 -2.825689,3.06364 -2.03918817,0 -0.86763947,-1.77522 -0.87795786,-4.21124 -0.007313,-1.72555 0.31252967,-2.94418 0.82937126,-2.96013 0.8943299,-0.0276 2.2790166,2.23231 2.8629023,2.24186 1.2208369,0.0199 3.6723114,-4.15283 3.6922736,0.71827 z"
       id="circle4628"
       inkscape:connector-curvature="0"
       sodipodi:nodetypes="ssssssss" />
  </g>
</svg>
