<?xml version="1.0" encoding="UTF-8" standalone="no"?>
<!-- Created with Inkscape (http://www.inkscape.org/) -->

<svg
   xmlns:dc="http://purl.org/dc/elements/1.1/"
   xmlns:cc="http://creativecommons.org/ns#"
   xmlns:rdf="http://www.w3.org/1999/02/22-rdf-syntax-ns#"
   xmlns:svg="http://www.w3.org/2000/svg"
   xmlns="http://www.w3.org/2000/svg"
   xmlns:sodipodi="http://sodipodi.sourceforge.net/DTD/sodipodi-0.dtd"
   xmlns:inkscape="http://www.inkscape.org/namespaces/inkscape"
   width="32"
   height="32"
   viewBox="0 0 8.4666665 8.4666669"
   version="1.1"
   id="svg8"
   inkscape:export-filename="C:\Workspaces\BP\OIAMobster\MobMentality\pause.png"
   inkscape:export-xdpi="96"
   inkscape:export-ydpi="96"
   inkscape:version="0.92.3 (2405546, 2018-03-11)"
   sodipodi:docname="pause.svg">
  <defs
     id="defs2" />
  <sodipodi:namedview
     id="base"
     pagecolor="#ffffff"
     bordercolor="#666666"
     borderopacity="1.0"
     inkscape:pageopacity="0.0"
     inkscape:pageshadow="2"
     inkscape:zoom="15.839192"
     inkscape:cx="3.0346163"
     inkscape:cy="16.287985"
     inkscape:document-units="mm"
     inkscape:current-layer="layer1"
     showgrid="false"
     units="px"
     inkscape:window-width="1920"
     inkscape:window-height="1017"
     inkscape:window-x="1022"
     inkscape:window-y="1076"
     inkscape:window-maximized="1" />
  <metadata
     id="metadata5">
    <rdf:RDF>
      <cc:Work
         rdf:about="">
        <dc:format>image/svg+xml</dc:format>
        <dc:type
           rdf:resource="http://purl.org/dc/dcmitype/StillImage" />
        <dc:title />
      </cc:Work>
    </rdf:RDF>
  </metadata>
  <g
     inkscape:label="Layer 1"
     inkscape:groupmode="layer"
     id="layer1"
     transform="translate(0,-288.53332)">
    <g
       id="g1946"
       style="fill:#ffffff">
      <path
         id="rect815"
         transform="matrix(0.26458333,0,0,0.26458333,0,288.53332)"
         d="M 6.734375 0.32226562 C 4.8959389 0.32226562 3.4160156 1.8021889 3.4160156 3.640625 L 3.4160156 28.359375 C 3.4160156 30.197811 4.8959389 31.677734 6.734375 31.677734 L 10.548828 31.677734 C 12.387264 31.677734 13.867188 30.197811 13.867188 28.359375 L 13.867188 3.640625 C 13.867187 1.8021889 12.387264 0.32226562 10.548828 0.32226562 L 6.734375 0.32226562 z M 8.0996094 2.5253906 L 9.1835938 2.5253906 C 10.763748 2.5253906 12.037109 3.7967985 12.037109 5.3769531 L 12.037109 26.623047 C 12.037109 28.203201 10.763748 29.474609 9.1835938 29.474609 L 8.0996094 29.474609 C 6.5194548 29.474609 5.2460937 28.203201 5.2460938 26.623047 L 5.2460938 5.3769531 C 5.2460938 3.7967985 6.5194548 2.5253906 8.0996094 2.5253906 z "
         style="fill:#ffffff;fill-opacity:1;stroke:none;stroke-width:1.37712371" />
      <path
         id="rect819"
         transform="matrix(0.26458333,0,0,0.26458333,0,288.53332)"
         d="M 21.451172 0.32226562 C 19.612736 0.32226562 18.132812 1.8021889 18.132812 3.640625 L 18.132812 28.359375 C 18.132813 30.197811 19.612736 31.677734 21.451172 31.677734 L 25.265625 31.677734 C 27.104061 31.677734 28.583984 30.197811 28.583984 28.359375 L 28.583984 3.640625 C 28.583984 1.8021889 27.104061 0.32226562 25.265625 0.32226562 L 21.451172 0.32226562 z M 22.816406 2.5253906 L 23.900391 2.5253906 C 25.480545 2.5253906 26.753906 3.7967985 26.753906 5.3769531 L 26.753906 26.623047 C 26.753906 28.203201 25.480545 29.474609 23.900391 29.474609 L 22.816406 29.474609 C 21.236252 29.474609 19.962891 28.203201 19.962891 26.623047 L 19.962891 5.3769531 C 19.962891 3.7967985 21.236252 2.5253906 22.816406 2.5253906 z "
         style="fill:#ffffff;fill-opacity:1;stroke:none;stroke-width:1.37712371" />
    </g>
  </g>
</svg>
