<?xml version="1.0" encoding="UTF-8" standalone="no"?>
<!-- Created with Inkscape (http://www.inkscape.org/) -->

<svg
   xmlns:dc="http://purl.org/dc/elements/1.1/"
   xmlns:cc="http://creativecommons.org/ns#"
   xmlns:rdf="http://www.w3.org/1999/02/22-rdf-syntax-ns#"
   xmlns:svg="http://www.w3.org/2000/svg"
   xmlns="http://www.w3.org/2000/svg"
   xmlns:sodipodi="http://sodipodi.sourceforge.net/DTD/sodipodi-0.dtd"
   xmlns:inkscape="http://www.inkscape.org/namespaces/inkscape"
   width="32"
   height="32"
   viewBox="0 0 8.4666665 8.4666669"
   version="1.1"
   id="svg8"
   inkscape:version="0.92.3 (2405546, 2018-03-11)"
   sodipodi:docname="play.svg">
  <defs
     id="defs2" />
  <sodipodi:namedview
     id="base"
     pagecolor="#ffffff"
     bordercolor="#666666"
     borderopacity="1.0"
     inkscape:pageopacity="0.0"
     inkscape:pageshadow="2"
     inkscape:zoom="15.839192"
     inkscape:cx="16.609113"
     inkscape:cy="16.394239"
     inkscape:document-units="px"
     inkscape:current-layer="layer1"
     showgrid="false"
     units="px"
     inkscape:window-width="1920"
     inkscape:window-height="1017"
     inkscape:window-x="1022"
     inkscape:window-y="1076"
     inkscape:window-maximized="1" />
  <metadata
     id="metadata5">
    <rdf:RDF>
      <cc:Work
         rdf:about="">
        <dc:format>image/svg+xml</dc:format>
        <dc:type
           rdf:resource="http://purl.org/dc/dcmitype/StillImage" />
        <dc:title></dc:title>
      </cc:Work>
    </rdf:RDF>
  </metadata>
  <g
     inkscape:label="Layer 1"
     inkscape:groupmode="layer"
     id="layer1"
     transform="translate(0,-288.53332)">
    <path
       style="fill:#ffffff;fill-opacity:1;stroke:none;stroke-width:0.85718411"
       d="M 7.8457031 1.0136719 C 6.9789462 1.0125013 6.1860998 1.1781799 5.5136719 1.5664062 C 1.9273901 3.6369467 2.1308594 11.821809 2.1308594 15.962891 C 2.1308594 20.103972 1.9273901 28.290787 5.5136719 30.361328 C 9.0999534 32.431869 16.087546 28.164291 19.673828 26.09375 C 23.26011 24.023209 30.451172 20.103972 30.451172 15.962891 C 30.451172 11.821809 23.26011 7.904525 19.673828 5.8339844 C 16.759974 4.15167 11.60165 1.0187442 7.8457031 1.0136719 z M 9.0078125 3.9179688 C 12.03411 3.9220557 16.191268 6.4472346 18.539062 7.8027344 C 21.428655 9.4710417 27.220703 12.626276 27.220703 15.962891 C 27.220703 19.299505 21.428656 22.456693 18.539062 24.125 C 15.64947 25.793307 10.018499 29.232761 7.1289062 27.564453 C 4.2393131 25.896146 4.4023438 19.299505 4.4023438 15.962891 C 4.4023437 12.626276 4.2393132 6.0315884 7.1289062 4.3632812 C 7.670705 4.0504736 8.3094361 3.9170256 9.0078125 3.9179688 z "
       transform="matrix(0.26458333,0,0,0.26458333,0,288.53332)"
       id="path817" />
  </g>
</svg>
