<?xml version="1.0" encoding="UTF-8" standalone="no"?>
<!-- Created with Inkscape (http://www.inkscape.org/) -->

<svg
   xmlns:dc="http://purl.org/dc/elements/1.1/"
   xmlns:cc="http://creativecommons.org/ns#"
   xmlns:rdf="http://www.w3.org/1999/02/22-rdf-syntax-ns#"
   xmlns:svg="http://www.w3.org/2000/svg"
   xmlns="http://www.w3.org/2000/svg"
   xmlns:sodipodi="http://sodipodi.sourceforge.net/DTD/sodipodi-0.dtd"
   xmlns:inkscape="http://www.inkscape.org/namespaces/inkscape"
   width="32"
   height="32"
   viewBox="0 0 8.4666665 8.4666669"
   version="1.1"
   id="svg8"
   inkscape:export-filename="C:\Workspaces\BP\OIAMobster\MobMentality\skip.png"
   inkscape:export-xdpi="96"
   inkscape:export-ydpi="96"
   inkscape:version="0.92.3 (2405546, 2018-03-11)"
   sodipodi:docname="skip.svg">
  <defs
     id="defs2" />
  <sodipodi:namedview
     id="base"
     pagecolor="#ffffff"
     bordercolor="#666666"
     borderopacity="1.0"
     inkscape:pageopacity="0.0"
     inkscape:pageshadow="2"
     inkscape:zoom="15.839192"
     inkscape:cx="19.95089"
     inkscape:cy="12.088651"
     inkscape:document-units="mm"
     inkscape:current-layer="layer1"
     showgrid="false"
     units="px"
     inkscape:window-width="1920"
     inkscape:window-height="1017"
     inkscape:window-x="1912"
     inkscape:window-y="-8"
     inkscape:window-maximized="1" />
  <metadata
     id="metadata5">
    <rdf:RDF>
      <cc:Work
         rdf:about="">
        <dc:format>image/svg+xml</dc:format>
        <dc:type
           rdf:resource="http://purl.org/dc/dcmitype/StillImage" />
        <dc:title />
      </cc:Work>
    </rdf:RDF>
  </metadata>
  <g
     inkscape:label="Layer 1"
     inkscape:groupmode="layer"
     id="layer1"
     transform="translate(0,-288.53332)">
    <path
       style="fill:#ffffff;fill-opacity:1;stroke:none;stroke-width:1.28507125"
       d="M 3.671875 1.0917969 C 2.2728137 1.0917969 1.1464844 2.2181262 1.1464844 3.6171875 L 1.1464844 28.175781 C 1.1464844 29.574843 2.2728137 30.701172 3.671875 30.701172 L 7.1445312 30.701172 C 8.5435926 30.701172 9.6699219 29.574843 9.6699219 28.175781 L 9.6699219 3.6171875 C 9.6699219 2.2181262 8.5435926 1.0917969 7.1445312 1.0917969 L 3.671875 1.0917969 z M 4.7226562 3.0761719 L 6.09375 3.0761719 C 7.3052976 3.0761719 8.2792969 4.0501712 8.2792969 5.2617188 L 8.2792969 26.53125 C 8.2792969 27.742798 7.3052976 28.716797 6.09375 28.716797 L 4.7226562 28.716797 C 3.5111087 28.716797 2.5351562 27.742798 2.5351562 26.53125 L 2.5351562 5.2617188 C 2.5351562 4.0501712 3.5111087 3.0761719 4.7226562 3.0761719 z "
       transform="matrix(0.26458333,0,0,0.26458333,0,288.53332)"
       id="rect1376" />
    <path
       style="fill:#ffffff;fill-opacity:1;stroke:none;stroke-width:0.85784239"
       d="M 14.689453 3.8457031 C 14.049288 3.8501953 13.465101 3.989446 12.972656 4.3105469 C 10.273387 6.0706165 10.435548 12.777857 10.435547 16.193359 C 10.435545 19.516624 10.291796 26.130033 12.972656 27.740234 C 15.727924 29.395127 21.004721 25.88939 23.732422 24.181641 C 26.386459 22.52001 31.738079 19.34813 31.683594 16.025391 C 31.627596 12.610428 26.19059 9.4069712 23.462891 7.6992188 C 21.306486 6.3491415 17.463502 3.8262372 14.689453 3.8457031 z M 15.363281 6.3710938 C 17.561393 6.3556693 20.607707 8.3540489 22.316406 9.4238281 C 24.477791 10.777023 28.785706 13.315524 28.830078 16.021484 C 28.873252 18.654369 24.632313 21.167726 22.529297 22.484375 C 20.367911 23.837568 16.187135 26.615997 14.003906 25.304688 C 11.879636 24.02879 11.992186 18.789551 11.992188 16.15625 C 11.992189 13.449862 11.865049 8.1329317 14.003906 6.7382812 C 14.394112 6.4838462 14.856025 6.3746532 15.363281 6.3710938 z "
       transform="matrix(0.26458333,0,0,0.26458333,0,288.53332)"
       id="path1380" />
  </g>
</svg>
